<svg width="126" height="23" fill="none" xmlns="http://www.w3.org/2000/svg"><path d="M13.328 9.264c.96.304 1.712.816 2.256 1.536.544.704.816 1.576.816 2.616 0 1.472-.576 2.608-1.728 3.408-1.136.784-2.8 1.176-4.992 1.176H.992V1.2H9.2c2.048 0 3.616.392 4.704 1.176 1.104.784 1.656 1.848 1.656 3.192 0 .816-.2 1.544-.6 2.184-.384.64-.928 1.144-1.632 1.512ZM4.856 4.128v3.96H8.72c.96 0 1.688-.168 2.184-.504.496-.336.744-.832.744-1.488s-.248-1.144-.744-1.464c-.496-.336-1.224-.504-2.184-.504H4.856Zm4.536 10.944c1.024 0 1.792-.168 2.304-.504.528-.336.792-.856.792-1.56 0-1.392-1.032-2.088-3.096-2.088H4.856v4.152h4.536Zm15.832 3.12c-1.36 0-2.584-.28-3.672-.84a6.439 6.439 0 0 1-2.52-2.376c-.608-1.008-.912-2.152-.912-3.432 0-1.28.304-2.424.912-3.432a6.27 6.27 0 0 1 2.52-2.352c1.088-.576 2.312-.864 3.672-.864 1.36 0 2.576.288 3.648.864a6.27 6.27 0 0 1 2.52 2.352c.608 1.008.912 2.152.912 3.432 0 1.28-.304 2.424-.912 3.432a6.439 6.439 0 0 1-2.52 2.376c-1.072.56-2.288.84-3.648.84Zm0-3.072c.96 0 1.744-.32 2.352-.96.624-.656.936-1.528.936-2.616s-.312-1.952-.936-2.592c-.608-.656-1.392-.984-2.352-.984s-1.752.328-2.376.984c-.624.64-.936 1.504-.936 2.592s.312 1.96.936 2.616c.624.64 1.416.96 2.376.96Zm15.726 3.072c-1.36 0-2.584-.28-3.672-.84a6.439 6.439 0 0 1-2.52-2.376c-.608-1.008-.912-2.152-.912-3.432 0-1.28.304-2.424.912-3.432a6.27 6.27 0 0 1 2.52-2.352c1.088-.576 2.312-.864 3.672-.864 1.36 0 2.576.288 3.648.864a6.27 6.27 0 0 1 2.52 2.352c.608 1.008.912 2.152.912 3.432 0 1.28-.304 2.424-.912 3.432a6.439 6.439 0 0 1-2.52 2.376c-1.072.56-2.288.84-3.648.84Zm0-3.072c.96 0 1.744-.32 2.352-.96.624-.656.936-1.528.936-2.616s-.312-1.952-.936-2.592c-.608-.656-1.392-.984-2.352-.984s-1.752.328-2.376.984c-.624.64-.936 1.504-.936 2.592s.312 1.96.936 2.616c.624.64 1.416.96 2.376.96Zm15.127-2.184-1.8 1.776V18h-3.744V.192h3.744v10.08l5.472-5.184h4.464l-5.376 5.472L64.693 18h-4.536l-4.08-5.064Zm14.222 5.256c-1.072 0-2.12-.128-3.144-.384-1.024-.272-1.84-.608-2.448-1.008l1.248-2.688c.576.368 1.272.672 2.088.912a9.042 9.042 0 0 0 2.4.336c1.584 0 2.376-.392 2.376-1.176 0-.368-.216-.632-.648-.792-.432-.16-1.096-.296-1.992-.408-1.056-.16-1.928-.344-2.616-.552a4.142 4.142 0 0 1-1.8-1.104c-.496-.528-.744-1.28-.744-2.256 0-.816.232-1.536.696-2.16.48-.64 1.168-1.136 2.064-1.488.912-.352 1.984-.528 3.216-.528.912 0 1.816.104 2.712.312.912.192 1.664.464 2.256.816l-1.248 2.664a7.45 7.45 0 0 0-3.72-.96c-.8 0-1.4.112-1.8.336-.4.224-.6.512-.6.864 0 .4.216.68.648.84.432.16 1.12.312 2.064.456 1.056.176 1.92.368 2.592.576a3.802 3.802 0 0 1 1.752 1.08c.496.528.744 1.264.744 2.208 0 .8-.24 1.512-.72 2.136-.48.624-1.184 1.112-2.112 1.464-.912.336-2 .504-3.264.504ZM86.553 4.896c1.6 0 2.888.48 3.864 1.44.992.96 1.488 2.384 1.488 4.272V18H88.16v-6.816c0-1.024-.224-1.784-.672-2.28-.448-.512-1.096-.768-1.944-.768-.944 0-1.696.296-2.256.888-.56.576-.84 1.44-.84 2.592V18h-3.744V.192h3.744v6.24a4.85 4.85 0 0 1 1.8-1.128 6.34 6.34 0 0 1 2.304-.408Zm15.03 13.296c-1.36 0-2.584-.28-3.672-.84a6.439 6.439 0 0 1-2.52-2.376c-.608-1.008-.912-2.152-.912-3.432 0-1.28.304-2.424.912-3.432a6.27 6.27 0 0 1 2.52-2.352c1.088-.576 2.312-.864 3.672-.864 1.36 0 2.576.288 3.648.864a6.27 6.27 0 0 1 2.52 2.352c.608 1.008.912 2.152.912 3.432 0 1.28-.304 2.424-.912 3.432a6.439 6.439 0 0 1-2.52 2.376c-1.072.56-2.288.84-3.648.84Zm0-3.072c.96 0 1.744-.32 2.352-.96.624-.656.936-1.528.936-2.616s-.312-1.952-.936-2.592c-.608-.656-1.392-.984-2.352-.984s-1.752.328-2.376.984c-.624.64-.936 1.504-.936 2.592s.312 1.96.936 2.616c.624.64 1.416.96 2.376.96Zm17.215-10.224c1.2 0 2.288.28 3.264.84a5.821 5.821 0 0 1 2.328 2.328c.56.992.84 2.152.84 3.48 0 1.328-.28 2.496-.84 3.504a6.028 6.028 0 0 1-2.328 2.328c-.976.544-2.064.816-3.264.816-1.648 0-2.944-.52-3.888-1.56v6.024h-3.744V5.088h3.576v1.488c.928-1.12 2.28-1.68 4.056-1.68Zm-.648 10.224c.96 0 1.744-.32 2.352-.96.624-.656.936-1.528.936-2.616s-.312-1.952-.936-2.592c-.608-.656-1.392-.984-2.352-.984s-1.752.328-2.377.984c-.607.64-.911 1.504-.911 2.592s.304 1.96.911 2.616c.625.64 1.417.96 2.377.96Z" fill="#1C2A39"/></svg>